<?xml version="1.0" encoding="UTF-8" standalone="no"?>
<!-- Generator: Adobe Illustrator 16.0.0, SVG Export Plug-In . SVG Version: 6.00 Build 0)  -->

<svg
   xmlns:dc="http://purl.org/dc/elements/1.1/"
   xmlns:cc="http://creativecommons.org/ns#"
   xmlns:rdf="http://www.w3.org/1999/02/22-rdf-syntax-ns#"
   xmlns:svg="http://www.w3.org/2000/svg"
   xmlns="http://www.w3.org/2000/svg"
   xmlns:sodipodi="http://sodipodi.sourceforge.net/DTD/sodipodi-0.dtd"
   xmlns:inkscape="http://www.inkscape.org/namespaces/inkscape"
   version="1.1"
   id="Capa_1"
   x="0px"
   y="0px"
   width="48"
   height="48"
   viewBox="0 0 48 48"
   xml:space="preserve"
   inkscape:version="0.48.4 r9939"
   sodipodi:docname="add149.svg"><metadata
     id="metadata44"><rdf:RDF><cc:Work
         rdf:about=""><dc:format>image/svg+xml</dc:format><dc:type
           rdf:resource="http://purl.org/dc/dcmitype/StillImage" /><dc:title></dc:title></cc:Work></rdf:RDF></metadata><defs
     id="defs42" /><sodipodi:namedview
     pagecolor="#ffffff"
     bordercolor="#666666"
     borderopacity="1"
     objecttolerance="10"
     gridtolerance="10"
     guidetolerance="10"
     inkscape:pageopacity="0"
     inkscape:pageshadow="2"
     inkscape:window-width="1280"
     inkscape:window-height="979"
     id="namedview40"
     showgrid="false"
     inkscape:zoom="6.1699346"
     inkscape:cx="32.306736"
     inkscape:cy="30.765783"
     inkscape:window-x="1366"
     inkscape:window-y="15"
     inkscape:window-maximized="1"
     inkscape:current-layer="g3" /><g
     id="g3"
     transform="translate(0,-564)"><g
       id="_x31__26_"
       style="fill:#2e3436;fill-opacity:1"
       transform="matrix(0.078125,0,0,0.078125,0,564.1875)"
       inkscape:export-filename="/home/work/workspace/gifmaker/images/add149.png"
       inkscape:export-xdpi="90"
       inkscape:export-ydpi="90"><g
         id="g6"
         style="fill:#2e3436;fill-opacity:1"><path
           d="M 420.75,286.875 H 325.125 V 191.25 c 0,-10.557 -8.568,-19.125 -19.125,-19.125 -10.557,0 -19.125,8.568 -19.125,19.125 v 95.625 H 191.25 c -10.557,0 -19.125,8.568 -19.125,19.125 0,10.557 8.568,19.125 19.125,19.125 h 95.625 v 95.625 c 0,10.557 8.568,19.125 19.125,19.125 10.557,0 19.125,-8.568 19.125,-19.125 v -95.625 h 95.625 c 10.557,0 19.125,-8.568 19.125,-19.125 0,-10.557 -8.568,-19.125 -19.125,-19.125 z M 535.5,0 H 76.5 C 34.253,0 0,34.253 0,76.5 v 459 C 0,577.747 34.253,612 76.5,612 h 459 c 42.247,0 76.5,-34.253 76.5,-76.5 V 76.5 C 612,34.253 577.747,0 535.5,0 z m 38.25,535.5 c 0,21.133 -17.136,38.25 -38.25,38.25 h -459 c -21.133,0 -38.25,-17.117 -38.25,-38.25 v -459 c 0,-21.133 17.117,-38.25 38.25,-38.25 h 459 c 21.114,0 38.25,17.136 38.25,38.25 v 459 z"
           id="path8"
           style="fill:#2e3436;fill-opacity:1"
           inkscape:connector-curvature="0" /></g></g></g><g
     id="g10"
     transform="translate(0,-564)" /><g
     id="g12"
     transform="translate(0,-564)" /><g
     id="g14"
     transform="translate(0,-564)" /><g
     id="g16"
     transform="translate(0,-564)" /><g
     id="g18"
     transform="translate(0,-564)" /><g
     id="g20"
     transform="translate(0,-564)" /><g
     id="g22"
     transform="translate(0,-564)" /><g
     id="g24"
     transform="translate(0,-564)" /><g
     id="g26"
     transform="translate(0,-564)" /><g
     id="g28"
     transform="translate(0,-564)" /><g
     id="g30"
     transform="translate(0,-564)" /><g
     id="g32"
     transform="translate(0,-564)" /><g
     id="g34"
     transform="translate(0,-564)" /><g
     id="g36"
     transform="translate(0,-564)" /><g
     id="g38"
     transform="translate(0,-564)" /></svg>